<svg width="24" height="24" viewBox="0 0 24 24" fill="none" xmlns="http://www.w3.org/2000/svg"><path opacity="0.25" fill-rule="evenodd" clip-rule="evenodd" d="M5.49998 3.50004C7.29283 1.70719 10.1189 1.5772 12.0615 3.11008C12.3818 3.36283 12.6631 3.66091 12.9502 3.95004L21.6787 12.6786C21.9424 12.9423 22.0192 13.2934 21.9465 13.6089C21.8635 13.9692 21.5853 14.2829 21.1677 14.3664L18.2968 14.9406C18.1032 14.9793 17.9254 15.0745 17.7858 15.2141L11.4142 21.5858C10.6331 22.3668 9.36678 22.3668 8.58573 21.5858L2.41416 15.4142C1.63311 14.6332 1.63311 13.3668 2.41416 12.5858C3.2879 11.712 4.16159 10.8382 5.03534 9.96448C3.5819 8.02573 3.73678 5.26324 5.49998 3.50004ZM6.47443 8.52539L10.5253 4.47449C9.39087 3.7881 7.89376 3.93469 6.9142 4.91425C5.93463 5.89382 5.78804 7.39093 6.47443 8.52539Z" fill="currentColor"></path><path d="M14.7928 17C15.2383 17 15.4614 17.5386 15.1464 17.8536L11.4142 21.5858C10.6331 22.3668 9.36679 22.3668 8.58574 21.5858L4.8535 17.8536C4.53852 17.5386 4.7616 17 5.20706 17H14.7928Z" fill="currentColor"></path><path d="M22 20.0001C22 21.1047 21.1046 22.0001 20 22.0001C18.8954 22.0001 18 21.1047 18 20.0001C18 18.8592 19.1571 17.7183 19.711 17.2374C19.8788 17.0918 20.1212 17.0918 20.289 17.2374C20.8429 17.7183 22 18.8592 22 20.0001Z" fill="currentColor"></path></svg>