<svg width="24" height="24" viewBox="0 0 24 24" fill="none"><path opacity="0.25" d="M1 6C1 4.34315 2.34315 3 4 3H20C21.6569 3 23 4.34315 23 6V18C23 19.6569 21.6569 21 20 21H4C2.34315 21 1 19.6569 1 18V6Z" fill="currentColor"></path><path fill-rule="evenodd" clip-rule="evenodd" d="M5.23177 7.35981C5.58534 6.93553 6.2159 6.87821 6.64018 7.23177L11.3598 11.1648C11.7307 11.4738 12.2693 11.4738 12.6402 11.1648L17.3598 7.23177C17.7841 6.87821 18.4147 6.93553 18.7682 7.35981C19.1218 7.78409 19.0645 8.41465 18.6402 8.76822L13.9205 12.7012C12.808 13.6284 11.192 13.6284 10.0794 12.7012L5.35981 8.76822C4.93553 8.41465 4.87821 7.78409 5.23177 7.35981Z" fill="currentColor"></path></svg>