<svg width="24" height="24" viewBox="0 0 24 24" fill="none"><path opacity="0.25" d="M2 8.34233C2 6.96573 2.93689 5.76578 4.27239 5.4319L6 5L7.1094 3.3359C7.6658 2.5013 8.60249 2 9.60555 2H14.3944C15.3975 2 16.3342 2.5013 16.8906 3.3359L18 5L19.7276 5.4319C21.0631 5.76578 22 6.96573 22 8.34233V19C22 20.6569 20.6569 22 19 22H5C3.34315 22 2 20.6569 2 19V8.34233Z" fill="currentColor"></path><path d="M18 10C18.5523 10 19 9.55228 19 9C19 8.44772 18.5523 8 18 8C17.4477 8 17 8.44772 17 9C17 9.55228 17.4477 10 18 10Z" fill="currentColor"></path><path fill-rule="evenodd" clip-rule="evenodd" d="M16 13C16 15.2091 14.2091 17 12 17C9.79086 17 8 15.2091 8 13C8 10.7909 9.79086 9 12 9C14.2091 9 16 10.7909 16 13ZM14 13C14 14.1046 13.1046 15 12 15C10.8954 15 10 14.1046 10 13C10 11.8954 10.8954 11 12 11C13.1046 11 14 11.8954 14 13Z" fill="currentColor"></path></svg>