<svg width="24" height="24" viewBox="0 0 24 24" fill="none"><path d="M8 20C8 19.4477 8.44772 19 9 19H15C15.5523 19 16 19.4477 16 20V21C16 22.6569 14.6569 24 13 24H11C9.34315 24 8 22.6569 8 21V20Z" fill="currentColor"></path><path opacity="0.25" d="M20 8C20 10.5264 18.8289 12.7793 17 14.2454V15C17 16.1046 16.1046 17 15 17C10.8358 17 15.5135 17 9 17C7.89543 17 7 16.1046 7 15V14.2454C5.17107 12.7793 4 10.5264 4 8C4 3.58172 7.58172 0 12 0C16.4183 0 20 3.58172 20 8Z" fill="currentColor"></path><path d="M10.7071 8.29289C10.3166 7.90237 9.68342 7.90237 9.29289 8.29289C8.90237 8.68342 8.90237 9.31658 9.29289 9.70711L11 11.4142V17H13V11.4142L14.7071 9.70711C15.0976 9.31658 15.0976 8.68342 14.7071 8.29289C14.3166 7.90237 13.6834 7.90237 13.2929 8.29289L12 9.58579L10.7071 8.29289Z" fill="currentColor"></path></svg>