<svg width="100" height="100" viewBox="0 0 100 100" fill="none" xmlns="http://www.w3.org/2000/svg">
<g filter="url(#filter0_iiiii_11_171)">
<rect width="100" height="100" rx="25" fill="url(#paint0_linear_11_171)"/>
</g>
<g clip-path="url(#clip0_11_171)">
<g filter="url(#filter1_dddiiiii_11_171)">
<path fill-rule="evenodd" clip-rule="evenodd" d="M19 35C15.6863 35 13 37.6863 13 41V59C13 62.3137 15.6863 65 19 65H81C84.3137 65 87 62.3137 87 59V41C87 37.6863 84.3137 35 81 35H19ZM25.384 54.976C25.128 54.944 24.912 54.912 24.736 54.88V46.528C24.976 46.496 25.208 46.472 25.432 46.456C25.672 46.44 25.904 46.432 26.128 46.432C27.248 46.432 28.144 46.8 28.816 47.536C29.488 48.256 29.824 49.336 29.824 50.776C29.824 51.528 29.728 52.176 29.536 52.72C29.36 53.248 29.104 53.68 28.768 54.016C28.448 54.352 28.056 54.6 27.592 54.76C27.144 54.92 26.648 55 26.104 55C25.88 55 25.64 54.992 25.384 54.976ZM25.144 58.36C25.496 58.376 25.808 58.384 26.08 58.384C27.28 58.384 28.376 58.224 29.368 57.904C30.36 57.584 31.208 57.104 31.912 56.464C32.632 55.808 33.184 55.008 33.568 54.064C33.952 53.104 34.144 51.984 34.144 50.704C34.144 49.392 33.944 48.256 33.544 47.296C33.144 46.336 32.576 45.544 31.84 44.92C31.12 44.28 30.248 43.808 29.224 43.504C28.216 43.2 27.088 43.048 25.84 43.048C25.232 43.048 24.544 43.088 23.776 43.168C23.008 43.232 22.28 43.376 21.592 43.6C21.272 43.712 21.016 43.864 20.824 44.056C20.648 44.232 20.56 44.488 20.56 44.824V56.032C20.56 56.864 21 57.448 21.88 57.784C22.2 57.912 22.544 58.008 22.912 58.072C23.296 58.152 23.672 58.216 24.04 58.264C24.424 58.312 24.792 58.344 25.144 58.36ZM36.4004 47.392C36.0164 48.352 35.8244 49.456 35.8244 50.704C35.8244 51.936 36.0164 53.032 36.4004 53.992C36.7844 54.952 37.3124 55.76 37.9844 56.416C38.6564 57.072 39.4564 57.576 40.3844 57.928C41.3124 58.264 42.3204 58.432 43.4084 58.432C44.4964 58.432 45.5044 58.264 46.4324 57.928C47.3604 57.592 48.1604 57.104 48.8324 56.464C49.5204 55.808 50.0564 55 50.4404 54.04C50.8244 53.064 51.0164 51.952 51.0164 50.704C51.0164 49.456 50.8164 48.352 50.4164 47.392C50.0324 46.432 49.4964 45.632 48.8084 44.992C48.1204 44.336 47.3124 43.84 46.3844 43.504C45.4724 43.168 44.4804 43 43.4084 43C42.3364 43 41.3364 43.168 40.4084 43.504C39.4964 43.84 38.6964 44.336 38.0084 44.992C37.3364 45.632 36.8004 46.432 36.4004 47.392ZM41.0324 53.968C40.4404 53.248 40.1444 52.16 40.1444 50.704C40.1444 49.248 40.4404 48.168 41.0324 47.464C41.6404 46.744 42.4404 46.384 43.4324 46.384C44.4404 46.384 45.2324 46.744 45.8084 47.464C46.4004 48.184 46.6964 49.264 46.6964 50.704C46.6964 52.16 46.4004 53.248 45.8084 53.968C45.2164 54.688 44.4164 55.048 43.4084 55.048C42.4164 55.048 41.6244 54.688 41.0324 53.968ZM58.0034 47.512C58.6594 46.76 59.6034 46.384 60.8354 46.384C61.4594 46.384 62.0034 46.48 62.4674 46.672C62.9474 46.864 63.3954 47.096 63.8114 47.368C64.0834 47.192 64.3234 46.952 64.5314 46.648C64.7394 46.344 64.8434 45.984 64.8434 45.568C64.8434 44.816 64.4354 44.2 63.6194 43.72C62.8194 43.24 61.6834 43 60.2114 43C59.1714 43 58.1954 43.168 57.2834 43.504C56.3714 43.84 55.5714 44.336 54.8834 44.992C54.2114 45.648 53.6754 46.456 53.2754 47.416C52.8914 48.36 52.6994 49.456 52.6994 50.704C52.6994 52.048 52.8994 53.208 53.2994 54.184C53.7154 55.144 54.2754 55.944 54.9794 56.584C55.6834 57.208 56.5074 57.672 57.4514 57.976C58.3954 58.28 59.4034 58.432 60.4754 58.432C61.9634 58.432 63.0674 58.208 63.7874 57.76C64.5234 57.296 64.8914 56.736 64.8914 56.08C64.8914 55.664 64.8114 55.304 64.6514 55C64.5074 54.68 64.2994 54.408 64.0274 54.184C63.6114 54.408 63.1714 54.608 62.7074 54.784C62.2594 54.96 61.7074 55.048 61.0514 55.048C59.8194 55.048 58.8354 54.672 58.0994 53.92C57.3794 53.168 57.0194 52.096 57.0194 50.704C57.0194 49.328 57.3474 48.264 58.0034 47.512ZM71.3543 57.904V52.6L74.7383 56.536C75.1223 56.984 75.5223 57.376 75.9383 57.712C76.3543 58.032 76.8903 58.192 77.5463 58.192C77.8503 58.192 78.1383 58.144 78.4103 58.048C78.6823 57.952 78.9223 57.808 79.1303 57.616C79.3543 57.424 79.5303 57.192 79.6583 56.92C79.7863 56.648 79.8503 56.336 79.8503 55.984C79.5623 55.68 79.2183 55.32 78.8183 54.904C78.4343 54.488 78.0263 54.056 77.5943 53.608C77.1783 53.144 76.7463 52.672 76.2983 52.192C75.8663 51.712 75.4503 51.248 75.0503 50.8L78.0503 47.8C78.5143 47.336 78.8503 46.92 79.0583 46.552C79.2663 46.184 79.3703 45.792 79.3703 45.376C79.3703 44.816 79.1303 44.336 78.6503 43.936C78.1863 43.52 77.4103 43.312 76.3223 43.312L71.3303 49.048V45.232C71.3303 44.816 71.2823 44.48 71.1863 44.224C71.0903 43.968 70.9463 43.768 70.7543 43.624C70.5623 43.48 70.3223 43.384 70.0343 43.336C69.7623 43.272 69.4423 43.24 69.0743 43.24C68.7223 43.24 68.3543 43.272 67.9703 43.336C67.5863 43.384 67.3063 43.424 67.1303 43.456V56.128C67.1303 56.544 67.1783 56.88 67.2743 57.136C67.3703 57.392 67.5143 57.592 67.7063 57.736C67.8983 57.88 68.1303 57.976 68.4023 58.024C68.6903 58.088 69.0183 58.12 69.3863 58.12C69.7543 58.12 70.1303 58.096 70.5143 58.048C70.8983 58 71.1783 57.952 71.3543 57.904Z" fill="url(#paint1_linear_11_171)"/>
</g>
</g>
<defs>
<filter id="filter0_iiiii_11_171" x="0" y="-2" width="100" height="103" filterUnits="userSpaceOnUse" color-interpolation-filters="sRGB">
<feFlood flood-opacity="0" result="BackgroundImageFix"/>
<feBlend mode="normal" in="SourceGraphic" in2="BackgroundImageFix" result="shape"/>
<feColorMatrix in="SourceAlpha" type="matrix" values="0 0 0 0 0 0 0 0 0 0 0 0 0 0 0 0 0 0 127 0" result="hardAlpha"/>
<feOffset dy="2"/>
<feGaussianBlur stdDeviation="0.5"/>
<feComposite in2="hardAlpha" operator="arithmetic" k2="-1" k3="1"/>
<feColorMatrix type="matrix" values="0 0 0 0 0.976471 0 0 0 0 0.611765 0 0 0 0 0.505882 0 0 0 1 0"/>
<feBlend mode="normal" in2="shape" result="effect1_innerShadow_11_171"/>
<feColorMatrix in="SourceAlpha" type="matrix" values="0 0 0 0 0 0 0 0 0 0 0 0 0 0 0 0 0 0 127 0" result="hardAlpha"/>
<feOffset dy="-2"/>
<feGaussianBlur stdDeviation="2"/>
<feComposite in2="hardAlpha" operator="arithmetic" k2="-1" k3="1"/>
<feColorMatrix type="matrix" values="0 0 0 0 0.8375 0 0 0 0 0.408281 0 0 0 0 0.538454 0 0 0 1 0"/>
<feBlend mode="normal" in2="effect1_innerShadow_11_171" result="effect2_innerShadow_11_171"/>
<feColorMatrix in="SourceAlpha" type="matrix" values="0 0 0 0 0 0 0 0 0 0 0 0 0 0 0 0 0 0 127 0" result="hardAlpha"/>
<feOffset dy="-2"/>
<feGaussianBlur stdDeviation="1"/>
<feComposite in2="hardAlpha" operator="arithmetic" k2="-1" k3="1"/>
<feColorMatrix type="matrix" values="0 0 0 0 0.970833 0 0 0 0 0.453056 0 0 0 0 0.58143 0 0 0 1 0"/>
<feBlend mode="normal" in2="effect2_innerShadow_11_171" result="effect3_innerShadow_11_171"/>
<feColorMatrix in="SourceAlpha" type="matrix" values="0 0 0 0 0 0 0 0 0 0 0 0 0 0 0 0 0 0 127 0" result="hardAlpha"/>
<feOffset dx="1"/>
<feComposite in2="hardAlpha" operator="arithmetic" k2="-1" k3="1"/>
<feColorMatrix type="matrix" values="0 0 0 0 0.979167 0 0 0 0 0.783333 0 0 0 0 0.783333 0 0 0 0.25 0"/>
<feBlend mode="normal" in2="effect3_innerShadow_11_171" result="effect4_innerShadow_11_171"/>
<feColorMatrix in="SourceAlpha" type="matrix" values="0 0 0 0 0 0 0 0 0 0 0 0 0 0 0 0 0 0 127 0" result="hardAlpha"/>
<feOffset dx="-1"/>
<feComposite in2="hardAlpha" operator="arithmetic" k2="-1" k3="1"/>
<feColorMatrix type="matrix" values="0 0 0 0 1 0 0 0 0 0.733333 0 0 0 0 0.733333 0 0 0 0.25 0"/>
<feBlend mode="normal" in2="effect4_innerShadow_11_171" result="effect5_innerShadow_11_171"/>
</filter>
<filter id="filter1_dddiiiii_11_171" x="-17" y="2" width="134" height="90" filterUnits="userSpaceOnUse" color-interpolation-filters="sRGB">
<feFlood flood-opacity="0" result="BackgroundImageFix"/>
<feColorMatrix in="SourceAlpha" type="matrix" values="0 0 0 0 0 0 0 0 0 0 0 0 0 0 0 0 0 0 127 0" result="hardAlpha"/>
<feOffset dy="2"/>
<feGaussianBlur stdDeviation="1"/>
<feComposite in2="hardAlpha" operator="out"/>
<feColorMatrix type="matrix" values="0 0 0 0 0 0 0 0 0 0 0 0 0 0 0 0 0 0 0.05 0"/>
<feBlend mode="normal" in2="BackgroundImageFix" result="effect1_dropShadow_11_171"/>
<feColorMatrix in="SourceAlpha" type="matrix" values="0 0 0 0 0 0 0 0 0 0 0 0 0 0 0 0 0 0 127 0" result="hardAlpha"/>
<feOffset dy="4"/>
<feGaussianBlur stdDeviation="2"/>
<feComposite in2="hardAlpha" operator="out"/>
<feColorMatrix type="matrix" values="0 0 0 0 0 0 0 0 0 0 0 0 0 0 0 0 0 0 0.04 0"/>
<feBlend mode="normal" in2="effect1_dropShadow_11_171" result="effect2_dropShadow_11_171"/>
<feColorMatrix in="SourceAlpha" type="matrix" values="0 0 0 0 0 0 0 0 0 0 0 0 0 0 0 0 0 0 127 0" result="hardAlpha"/>
<feOffset dy="-3"/>
<feGaussianBlur stdDeviation="15"/>
<feComposite in2="hardAlpha" operator="out"/>
<feColorMatrix type="matrix" values="0 0 0 0 0 0 0 0 0 0 0 0 0 0 0 0 0 0 0.25 0"/>
<feBlend mode="normal" in2="effect2_dropShadow_11_171" result="effect3_dropShadow_11_171"/>
<feBlend mode="normal" in="SourceGraphic" in2="effect3_dropShadow_11_171" result="shape"/>
<feColorMatrix in="SourceAlpha" type="matrix" values="0 0 0 0 0 0 0 0 0 0 0 0 0 0 0 0 0 0 127 0" result="hardAlpha"/>
<feOffset dy="2"/>
<feGaussianBlur stdDeviation="0.5"/>
<feComposite in2="hardAlpha" operator="arithmetic" k2="-1" k3="1"/>
<feColorMatrix type="matrix" values="0 0 0 0 1 0 0 0 0 0.82597 0 0 0 0 0.7875 0 0 0 1 0"/>
<feBlend mode="normal" in2="shape" result="effect4_innerShadow_11_171"/>
<feColorMatrix in="SourceAlpha" type="matrix" values="0 0 0 0 0 0 0 0 0 0 0 0 0 0 0 0 0 0 127 0" result="hardAlpha"/>
<feOffset dy="-2"/>
<feGaussianBlur stdDeviation="2"/>
<feComposite in2="hardAlpha" operator="arithmetic" k2="-1" k3="1"/>
<feColorMatrix type="matrix" values="0 0 0 0 0.772549 0 0 0 0 0.298039 0 0 0 0 0.329412 0 0 0 0.3 0"/>
<feBlend mode="normal" in2="effect4_innerShadow_11_171" result="effect5_innerShadow_11_171"/>
<feColorMatrix in="SourceAlpha" type="matrix" values="0 0 0 0 0 0 0 0 0 0 0 0 0 0 0 0 0 0 127 0" result="hardAlpha"/>
<feOffset dy="-1"/>
<feGaussianBlur stdDeviation="0.5"/>
<feComposite in2="hardAlpha" operator="arithmetic" k2="-1" k3="1"/>
<feColorMatrix type="matrix" values="0 0 0 0 0.729412 0 0 0 0 0.254902 0 0 0 0 0.317647 0 0 0 0.16 0"/>
<feBlend mode="normal" in2="effect5_innerShadow_11_171" result="effect6_innerShadow_11_171"/>
<feColorMatrix in="SourceAlpha" type="matrix" values="0 0 0 0 0 0 0 0 0 0 0 0 0 0 0 0 0 0 127 0" result="hardAlpha"/>
<feOffset dy="1"/>
<feGaussianBlur stdDeviation="0.5"/>
<feComposite in2="hardAlpha" operator="arithmetic" k2="-1" k3="1"/>
<feColorMatrix type="matrix" values="0 0 0 0 1 0 0 0 0 1 0 0 0 0 1 0 0 0 0.7 0"/>
<feBlend mode="normal" in2="effect6_innerShadow_11_171" result="effect7_innerShadow_11_171"/>
<feColorMatrix in="SourceAlpha" type="matrix" values="0 0 0 0 0 0 0 0 0 0 0 0 0 0 0 0 0 0 127 0" result="hardAlpha"/>
<feOffset dy="-4"/>
<feGaussianBlur stdDeviation="3"/>
<feComposite in2="hardAlpha" operator="arithmetic" k2="-1" k3="1"/>
<feColorMatrix type="matrix" values="0 0 0 0 0.639216 0 0 0 0 0.227451 0 0 0 0 0.282353 0 0 0 0.23 0"/>
<feBlend mode="normal" in2="effect7_innerShadow_11_171" result="effect8_innerShadow_11_171"/>
</filter>
<linearGradient id="paint0_linear_11_171" x1="50" y1="0" x2="50" y2="100" gradientUnits="userSpaceOnUse">
<stop stop-color="#F77D5C"/>
<stop offset="1" stop-color="#B0374F"/>
</linearGradient>
<linearGradient id="paint1_linear_11_171" x1="52" y1="33" x2="52" y2="69" gradientUnits="userSpaceOnUse">
<stop stop-color="#FBEFE7"/>
<stop offset="1" stop-color="#F4CBB4"/>
</linearGradient>
<clipPath id="clip0_11_171">
<rect width="100" height="95" fill="white" transform="translate(0 2)"/>
</clipPath>
</defs>
</svg>
